<svg width="40" height="40" viewBox="0 0 40 40" fill="none" xmlns="http://www.w3.org/2000/svg">
<rect x="6.5" y="15.5" width="3" height="27" transform="rotate(-90 6.5 15.5)" fill="#01BCBC"/>
<rect width="27" height="3" transform="matrix(-1 0 0 1 33.5 20)" fill="#006868"/>
<rect width="27" height="3" transform="matrix(-1 0 0 1 33.5 24.5)" fill="#00FFFF"/>
<rect width="21" height="1.5" transform="matrix(-1 0 0 1 30.5 17)" fill="#00E9E9"/>
<rect x="6.5" y="30.5" width="3" height="27" transform="rotate(-90 6.5 30.5)" fill="#01BCBC"/>
<rect x="8" y="12.5" width="3" height="24" transform="rotate(-90 8 12.5)" fill="#01BCBC"/>
<rect x="9.5" y="8" width="21" height="1.5" fill="#004949"/>
<rect x="6.5" y="15.5" width="27" height="1.5" fill="#004949"/>
<rect x="6.5" y="18.5" width="27" height="1.5" fill="#004949"/>
<rect x="6.5" y="23" width="27" height="1.5" fill="#004949"/>
<rect x="6.5" y="30.5" width="27" height="1.5" fill="#004949"/>
<rect x="30.5" y="9.5" width="1.5" height="1.5" fill="#004949"/>
<rect x="8" y="9.5" width="1.5" height="1.5" fill="#004949"/>
<rect x="6.5" y="11" width="1.5" height="1.5" fill="#004949"/>
<rect x="5" y="12.5" width="1.5" height="4.5" fill="#004949"/>
<rect x="5" y="20" width="1.5" height="3" fill="#004949"/>
<rect x="5" y="27.5" width="1.5" height="3" fill="#004949"/>
<rect x="33.5" y="27.5" width="1.5" height="3" fill="#004949"/>
<rect x="33.5" y="20" width="1.5" height="3" fill="#004949"/>
<rect x="8" y="17" width="1.5" height="1.5" fill="#004949"/>
<rect x="5" y="24.5" width="1.5" height="1.5" fill="#004949"/>
<rect x="33.5" y="24.5" width="1.5" height="1.5" fill="#004949"/>
<rect x="32" y="26" width="1.5" height="1.5" fill="#004949"/>
<rect x="30.5" y="27.5" width="1.5" height="1.5" fill="#004949"/>
<rect x="26" y="27.5" width="1.5" height="1.5" fill="#004949"/>
<rect x="21.5" y="27.5" width="1.5" height="1.5" fill="#004949"/>
<rect x="17" y="27.5" width="1.5" height="1.5" fill="#004949"/>
<rect x="12.5" y="27.5" width="1.5" height="1.5" fill="#004949"/>
<rect x="6.5" y="26" width="1.5" height="1.5" fill="#004949"/>
<rect x="8" y="27.5" width="1.5" height="1.5" fill="#004949"/>
<rect x="9.5" y="26" width="3" height="1.5" fill="#004949"/>
<rect x="14" y="26" width="3" height="1.5" fill="#004949"/>
<rect x="18.5" y="26" width="3" height="1.5" fill="#004949"/>
<rect x="23" y="26" width="3" height="1.5" fill="#004949"/>
<rect x="27.5" y="26" width="3" height="1.5" fill="#004949"/>
<rect x="30.5" y="17" width="1.5" height="1.5" fill="#004949"/>
<rect x="33.5" y="12.5" width="1.5" height="4.5" fill="#004949"/>
<rect x="32" y="11" width="1.5" height="1.5" fill="#004949"/>
</svg>
