<svg width="40" height="40" viewBox="0 0 40 40" fill="none" xmlns="http://www.w3.org/2000/svg">
<rect x="12.353" y="21.4705" width="14.1176" height="4.70588" transform="rotate(-90 12.353 21.4705)" fill="#00CECE"/>
<rect x="15.8823" y="29.7058" width="14.1176" height="2.35294" transform="rotate(-90 15.8823 29.7058)" fill="#00CECE"/>
<rect x="21.7646" y="29.7058" width="14.1176" height="2.35294" transform="rotate(-90 21.7646 29.7058)" fill="#00CECE"/>
<path d="M18.2354 33.2351V17.941H21.7648V33.2351H18.2354Z" fill="#00CECE"/>
<rect x="22.9414" y="21.4705" width="14.1176" height="4.70588" transform="rotate(-90 22.9414 21.4705)" fill="#00CECE"/>
<rect x="24.1177" y="25" width="3.52941" height="2.35294" transform="rotate(-90 24.1177 25)" fill="#00CECE"/>
<rect x="13.5293" y="25" width="3.52941" height="2.35294" transform="rotate(-90 13.5293 25)" fill="#00CECE"/>
<rect x="14.7061" y="10.8823" width="4.70588" height="10.5882" transform="rotate(-90 14.7061 10.8823)" fill="#00CECE"/>
<rect x="27.647" y="17.9412" width="7.05882" height="1.17647" transform="rotate(-90 27.647 17.9412)" fill="#00CECE"/>
<rect x="12.353" y="13.2351" width="2.35294" height="1.17647" transform="rotate(-90 12.353 13.2351)" fill="#00FFFF"/>
<rect x="13.5293" y="10.8823" width="1.17647" height="1.17647" transform="rotate(-90 13.5293 10.8823)" fill="#00FFFF"/>
<rect x="14.7061" y="9.70581" width="1.17647" height="1.17647" transform="rotate(-90 14.7061 9.70581)" fill="#00FFFF"/>
<rect x="11.1763" y="17.9412" width="7.05882" height="1.17647" transform="rotate(-90 11.1763 17.9412)" fill="#00CECE"/>
<rect x="25.2939" y="20.2942" width="1.17647" height="2.35294" fill="#01BCBC"/>
<rect x="26.4707" y="17.9412" width="1.17647" height="2.35294" fill="#01BCBC"/>
<rect x="26.4707" y="8.5293" width="1.17647" height="2.35294" fill="#01BCBC"/>
<rect x="25.2939" y="7.35303" width="1.17647" height="2.35294" fill="#01BCBC"/>
<rect x="24.1177" y="6.17651" width="1.17647" height="1.17647" fill="#01BCBC"/>
<rect x="27.647" y="10.8823" width="1.17647" height="7.05882" fill="#01BCBC"/>
<rect x="24.1177" y="22.647" width="1.17647" height="2.35294" fill="#01BCBC"/>
<rect x="22.9414" y="25" width="1.17647" height="2.35294" fill="#01BCBC"/>
<rect x="21.7646" y="27.353" width="1.17647" height="2.35294" fill="#01BCBC"/>
<rect x="20.5884" y="29.7058" width="1.17647" height="2.35294" fill="#01BCBC"/>
<rect x="19.4116" y="32.0588" width="1.17647" height="1.17647" fill="#01BCBC"/>
<rect x="10" y="10.8823" width="1.17647" height="7.05882" fill="#004949"/>
<rect x="28.8237" y="10.8823" width="1.17647" height="7.05882" fill="#004949"/>
<rect x="11.1763" y="17.9412" width="1.17647" height="2.35294" fill="#004949"/>
<rect x="12.353" y="20.2942" width="1.17647" height="2.35294" fill="#004949"/>
<rect x="13.5293" y="22.647" width="1.17647" height="2.35294" fill="#004949"/>
<rect x="14.7061" y="25" width="1.17647" height="2.35294" fill="#004949"/>
<rect x="15.8823" y="27.353" width="1.17647" height="2.35294" fill="#004949"/>
<rect x="17.0586" y="29.7058" width="1.17647" height="2.35294" fill="#004949"/>
<rect x="21.7646" y="29.7058" width="1.17647" height="2.35294" fill="#004949"/>
<rect x="22.9414" y="27.353" width="1.17647" height="2.35294" fill="#004949"/>
<rect x="24.1177" y="25" width="1.17647" height="2.35294" fill="#004949"/>
<rect x="25.2939" y="22.647" width="1.17647" height="2.35294" fill="#004949"/>
<rect x="26.4707" y="20.2942" width="1.17647" height="2.35294" fill="#004949"/>
<rect x="27.647" y="17.9412" width="1.17647" height="2.35294" fill="#004949"/>
<rect x="18.2354" y="32.0588" width="1.17647" height="1.17647" fill="#004949"/>
<rect x="11.1763" y="8.5293" width="1.17647" height="2.35294" fill="#004949"/>
<rect x="12.353" y="7.35303" width="1.17647" height="1.17647" fill="#004949"/>
<rect x="13.5293" y="6.17651" width="1.17647" height="1.17647" fill="#004949"/>
<rect x="25.2939" y="6.17651" width="1.17647" height="1.17647" fill="#004949"/>
<rect x="14.7061" y="5" width="10.5882" height="1.17647" fill="#004949"/>
<rect x="18.2354" y="9.70581" width="3.52941" height="1.17647" fill="#004949"/>
<rect x="15.8823" y="12.0588" width="1.17647" height="3.52941" fill="#004949"/>
<rect x="22.9414" y="12.0588" width="1.17647" height="3.52941" fill="#004949"/>
<rect x="18.2354" y="16.7646" width="3.52941" height="1.17647" fill="#004949"/>
<rect x="27.647" y="8.5293" width="1.17647" height="2.35294" fill="#004949"/>
<rect x="26.4707" y="7.35303" width="1.17647" height="1.17647" fill="#004949"/>
<rect x="17.0586" y="10.8823" width="1.17647" height="1.17647" fill="#004949"/>
<rect x="21.7646" y="10.8823" width="1.17647" height="1.17647" fill="#004949"/>
<rect x="21.7646" y="15.5881" width="1.17647" height="1.17647" fill="#004949"/>
<rect x="17.0586" y="15.5881" width="1.17647" height="1.17647" fill="#004949"/>
<rect x="26.4707" y="7.35303" width="1.17647" height="1.17647" fill="#004949"/>
<rect x="19.4116" y="33.2354" width="1.17647" height="1.17647" fill="#004949"/>
<rect x="20.5884" y="32.0588" width="1.17647" height="1.17647" fill="#004949"/>
</svg>
