<svg width="40" height="40" viewBox="0 0 40 40" fill="none" xmlns="http://www.w3.org/2000/svg">
<rect x="8" y="8" width="23" height="23" fill="#00F4F4"/>
<rect x="7" y="31" width="20" height="1" transform="rotate(-90 7 31)" fill="#00CECE"/>
<rect x="7" y="11" width="3" height="1" transform="rotate(-90 7 11)" fill="white"/>
<rect x="8" y="8" width="1" height="3" transform="rotate(-90 8 8)" fill="white"/>
<rect x="8" y="9" width="1" height="1" transform="rotate(-90 8 9)" fill="white"/>
<rect x="8" y="31" width="23" height="1" fill="#00CECE"/>
<rect x="11" y="7" width="20" height="1" fill="#00CECE"/>
<rect x="31" y="31" width="23" height="1" transform="rotate(-90 31 31)" fill="#00CECE"/>
<rect x="8" y="7" width="1" height="23" transform="rotate(-90 8 7)" fill="#004949"/>
<rect x="14" y="17" width="3" height="11" transform="rotate(-90 14 17)" fill="white"/>
<rect x="17" y="20" width="2" height="5" transform="rotate(-90 17 20)" fill="white"/>
<rect x="17" y="23" width="2" height="5" transform="rotate(-90 17 23)" fill="white"/>
<rect x="22" y="19" width="2" height="3" transform="rotate(-90 22 19)" fill="white"/>
<rect x="14" y="18" width="1" height="3" transform="rotate(-90 14 18)" fill="#004949"/>
<rect x="15" y="14" width="1" height="9" transform="rotate(-90 15 14)" fill="#004949"/>
<rect x="14" y="15" width="1" height="1" transform="rotate(-90 14 15)" fill="#004949"/>
<rect x="13" y="17" width="2" height="1" transform="rotate(-90 13 17)" fill="#004949"/>
<rect x="16" y="20" width="2" height="1" transform="rotate(-90 16 20)" fill="#004949"/>
<rect x="16" y="23" width="2" height="1" transform="rotate(-90 16 23)" fill="#004949"/>
<rect x="22" y="23" width="2" height="1" transform="rotate(-90 22 23)" fill="#004949"/>
<rect x="25" y="18" width="3" height="1" transform="rotate(-90 25 18)" fill="#004949"/>
<rect x="24" y="15" width="1" height="1" transform="rotate(-90 24 15)" fill="#004949"/>
<rect x="24" y="19" width="1" height="1" transform="rotate(-90 24 19)" fill="#004949"/>
<rect x="22" y="20" width="1" height="2" transform="rotate(-90 22 20)" fill="#004949"/>
<rect x="17" y="21" width="1" height="5" transform="rotate(-90 17 21)" fill="#004949"/>
<rect x="17" y="24" width="1" height="5" transform="rotate(-90 17 24)" fill="#004949"/>
<rect x="17" y="18" width="2" height="5" transform="rotate(-90 17 18)" fill="#004949"/>
<rect x="8" y="33" width="1" height="23" transform="rotate(-90 8 33)" fill="#004949"/>
<rect x="6" y="8" width="1" height="23" fill="#004949"/>
<rect x="32" y="8" width="1" height="23" fill="#004949"/>
<rect x="7" y="8" width="1" height="1" transform="rotate(-90 7 8)" fill="#004949"/>
<rect x="31" y="8" width="1" height="1" transform="rotate(-90 31 8)" fill="#004949"/>
<rect x="31" y="32" width="1" height="1" transform="rotate(-90 31 32)" fill="#004949"/>
<rect x="7" y="32" width="1" height="1" transform="rotate(-90 7 32)" fill="#004949"/>
</svg>
