<svg width="40" height="40" viewBox="0 0 40 40" fill="none" xmlns="http://www.w3.org/2000/svg">
<g clip-path="url(#clip0_60_592)">
<rect x="3.22119" y="15.8843" width="3" height="2" transform="rotate(-20 3.22119 15.8843)" fill="#00FFFF"/>
<rect x="5.44238" y="16.1399" width="2" height="2" transform="rotate(-20 5.44238 16.1399)" fill="#00FFFF"/>
<rect x="6.72412" y="16.7375" width="2" height="2" transform="rotate(-20 6.72412 16.7375)" fill="#00FFFF"/>
<rect x="8.00586" y="17.3352" width="2" height="2" transform="rotate(-20 8.00586 17.3352)" fill="#00FFFF"/>
<rect x="9.2876" y="17.9329" width="2" height="2" transform="rotate(-20 9.2876 17.9329)" fill="#00FFFF"/>
<rect x="23.3867" y="24.5073" width="2" height="2" transform="rotate(-20 23.3867 24.5073)" fill="#00FFFF"/>
<rect x="24.6685" y="25.105" width="2" height="2" transform="rotate(-20 24.6685 25.105)" fill="#00FFFF"/>
<rect x="25.9502" y="25.7026" width="2" height="2" transform="rotate(-20 25.9502 25.7026)" fill="#00FFFF"/>
<rect x="27.2319" y="26.3003" width="2" height="2" transform="rotate(-20 27.2319 26.3003)" fill="#00FFFF"/>
<rect x="28.5132" y="26.8979" width="2" height="2" transform="rotate(-20 28.5132 26.8979)" fill="#00FFFF"/>
<rect x="15.437" y="11.438" width="4" height="2" transform="rotate(-20 15.437 11.438)" fill="#00FFFF"/>
<rect x="17.6587" y="11.6936" width="6" height="2" transform="rotate(-20 17.6587 11.6936)" fill="#00FFFF"/>
<rect x="21.7593" y="11.2654" width="6" height="2" transform="rotate(-20 21.7593 11.2654)" fill="#00FFFF"/>
<rect x="29.6191" y="9.46875" width="3" height="2" transform="rotate(-20 29.6191 9.46875)" fill="#00FFFF"/>
<rect x="31.8403" y="9.72437" width="2" height="2" transform="rotate(-20 31.8403 9.72437)" fill="#00FFFF"/>
<rect x="24.751" y="16.5615" width="2" height="2" transform="rotate(-20 24.751 16.5615)" fill="#00FFFF"/>
<rect x="26.7998" y="10.4949" width="2" height="2" transform="rotate(-20 26.7998 10.4949)" fill="#00FFFF"/>
<rect x="29.7949" y="27.4956" width="2" height="2" transform="rotate(-20 29.7949 27.4956)" fill="#00FFFF"/>
<rect x="31.0767" y="28.0933" width="2" height="2" transform="rotate(-20 31.0767 28.0933)" fill="#00FFFF"/>
<rect x="35.5195" y="28.6047" width="1" height="2" transform="rotate(-20 35.5195 28.6047)" fill="#00FFFF"/>
<rect x="32.3584" y="28.6912" width="4" height="1" transform="rotate(-20 32.3584 28.6912)" fill="#00FFFF"/>
<rect x="10.5693" y="18.5305" width="2" height="2" transform="rotate(-20 10.5693 18.5305)" fill="#00FFFF"/>
<rect x="12.791" y="18.7864" width="4" height="2" transform="rotate(-20 12.791 18.7864)" fill="#00FFFF"/>
<rect x="3.9917" y="20.9248" width="2" height="2" transform="rotate(-20 3.9917 20.9248)" fill="#004949"/>
<rect x="2.36816" y="19.3875" width="2" height="2" transform="rotate(-20 2.36816 19.3875)" fill="#004949"/>
<rect x="1.68408" y="17.5081" width="2" height="2" transform="rotate(-20 1.68408 17.5081)" fill="#004949"/>
<rect x="5.27344" y="21.5225" width="2" height="2" transform="rotate(-20 5.27344 21.5225)" fill="#004949"/>
<rect x="6.55518" y="22.1201" width="2" height="2" transform="rotate(-20 6.55518 22.1201)" fill="#004949"/>
<rect x="7.83691" y="22.7178" width="2" height="2" transform="rotate(-20 7.83691 22.7178)" fill="#004949"/>
<rect x="9.11865" y="23.3154" width="2" height="2" transform="rotate(-20 9.11865 23.3154)" fill="#004949"/>
<rect x="10.4004" y="23.9131" width="2" height="2" transform="rotate(-20 10.4004 23.9131)" fill="#004949"/>
<rect x="11.6821" y="24.5107" width="2" height="2" transform="rotate(-20 11.6821 24.5107)" fill="#004949"/>
<rect x="12.9639" y="25.1084" width="2" height="2" transform="rotate(-20 12.9639 25.1084)" fill="#004949"/>
<rect x="14.2456" y="25.7063" width="2" height="2" transform="rotate(-20 14.2456 25.7063)" fill="#004949"/>
<rect x="15.5273" y="26.304" width="2" height="2" transform="rotate(-20 15.5273 26.304)" fill="#004949"/>
<rect x="16.8091" y="26.9016" width="2" height="2" transform="rotate(-20 16.8091 26.9016)" fill="#004949"/>
<rect x="18.0908" y="27.4993" width="2" height="2" transform="rotate(-20 18.0908 27.4993)" fill="#004949"/>
<rect x="19.3726" y="28.0969" width="2" height="2" transform="rotate(-20 19.3726 28.0969)" fill="#004949"/>
<rect x="2.28174" y="16.2263" width="1" height="1" transform="rotate(-20 2.28174 16.2263)" fill="#004949"/>
<rect x="2.87939" y="14.9446" width="3" height="1" transform="rotate(-20 2.87939 14.9446)" fill="#004949"/>
<rect x="20.6543" y="28.6946" width="2" height="2" transform="rotate(-20 20.6543 28.6946)" fill="#004949"/>
<rect x="21.936" y="29.2922" width="2" height="2" transform="rotate(-20 21.936 29.2922)" fill="#004949"/>
<rect x="23.2173" y="29.8899" width="2" height="2" transform="rotate(-20 23.2173 29.8899)" fill="#004949"/>
<rect x="24.499" y="30.4875" width="2" height="2" transform="rotate(-20 24.499 30.4875)" fill="#004949"/>
<rect x="25.7808" y="31.0852" width="2" height="2" transform="rotate(-20 25.7808 31.0852)" fill="#004949"/>
<rect x="27.0625" y="31.6829" width="2" height="2" transform="rotate(-20 27.0625 31.6829)" fill="#004949"/>
<rect x="28.3442" y="32.2805" width="2" height="2" transform="rotate(-20 28.3442 32.2805)" fill="#004949"/>
<rect x="30.5659" y="32.5361" width="2" height="2" transform="rotate(-20 30.5659 32.5361)" fill="#004949"/>
<rect x="31.5054" y="32.1941" width="4" height="2" transform="rotate(-20 31.5054 32.1941)" fill="#004949"/>
<rect x="6.04053" y="14.8582" width="1" height="1" transform="rotate(-20 6.04053 14.8582)" fill="#004949"/>
<rect x="7.32227" y="15.4558" width="1" height="1" transform="rotate(-20 7.32227 15.4558)" fill="#004949"/>
<rect x="8.604" y="16.0537" width="1" height="1" transform="rotate(-20 8.604 16.0537)" fill="#004949"/>
<rect x="9.88574" y="16.6514" width="1" height="1" transform="rotate(-20 9.88574 16.6514)" fill="#004949"/>
<rect x="27.3979" y="9.21313" width="1" height="1" transform="rotate(-20 27.3979 9.21313)" fill="#004949"/>
<rect x="33.4644" y="11.262" width="1" height="1" transform="rotate(-20 33.4644 11.262)" fill="#004949"/>
<rect x="26.6309" y="15.8774" width="1" height="2" transform="rotate(-20 26.6309 15.8774)" fill="#004949"/>
<rect x="26.375" y="18.0989" width="1" height="2" transform="rotate(-20 26.375 18.0989)" fill="#004949"/>
<rect x="26.1196" y="20.3203" width="1" height="2" transform="rotate(-20 26.1196 20.3203)" fill="#004949"/>
<rect x="25.8638" y="22.5417" width="1" height="1" transform="rotate(-20 25.8638 22.5417)" fill="#004949"/>
<rect x="30.645" y="12.2878" width="1" height="1" transform="rotate(-20 30.645 12.2878)" fill="#004949"/>
<rect x="31.3291" y="14.1672" width="2" height="1" transform="rotate(-20 31.3291 14.1672)" fill="#004949"/>
<rect x="25.3491" y="15.2798" width="9" height="1" transform="rotate(-20 25.3491 15.2798)" fill="#004949"/>
<rect x="32.4385" y="8.44287" width="1" height="1" transform="rotate(-20 32.4385 8.44287)" fill="#004949"/>
<rect x="33.7197" y="9.04053" width="1" height="2" transform="rotate(-20 33.7197 9.04053)" fill="#004949"/>
<rect x="29.2773" y="8.52905" width="3" height="1" transform="rotate(-20 29.2773 8.52905)" fill="#004949"/>
<rect x="11.1675" y="17.249" width="1" height="1" transform="rotate(-20 11.1675 17.249)" fill="#004949"/>
<rect x="13.8999" y="13.0618" width="1" height="1" transform="rotate(-20 13.8999 13.0618)" fill="#004949"/>
<rect x="14.4976" y="11.78" width="1" height="1" transform="rotate(-20 14.4976 11.78)" fill="#004949"/>
<rect x="15.0952" y="10.4983" width="4" height="1" transform="rotate(-20 15.0952 10.4983)" fill="#004949"/>
<rect x="19.1963" y="10.0701" width="4" height="1" transform="rotate(-20 19.1963 10.0701)" fill="#004949"/>
<rect x="23.2969" y="9.6416" width="4" height="1" transform="rotate(-20 23.2969 9.6416)" fill="#004949"/>
<rect x="25.2661" y="23.8232" width="1" height="1" transform="rotate(-20 25.2661 23.8232)" fill="#004949"/>
<rect x="26.5479" y="24.4209" width="1" height="1" transform="rotate(-20 26.5479 24.4209)" fill="#004949"/>
<rect x="27.8296" y="25.0188" width="1" height="1" transform="rotate(-20 27.8296 25.0188)" fill="#004949"/>
<rect x="29.1113" y="25.6165" width="1" height="1" transform="rotate(-20 29.1113 25.6165)" fill="#004949"/>
<rect x="30.3931" y="26.2141" width="1" height="1" transform="rotate(-20 30.3931 26.2141)" fill="#004949"/>
<rect x="31.6748" y="26.8118" width="1" height="1" transform="rotate(-20 31.6748 26.8118)" fill="#004949"/>
<rect x="36.1177" y="27.323" width="1" height="3" transform="rotate(-20 36.1177 27.323)" fill="#004949"/>
<rect x="36.2041" y="30.4841" width="1" height="1" transform="rotate(-20 36.2041 30.4841)" fill="#004949"/>
<rect x="35.6064" y="31.7659" width="1" height="1" transform="rotate(-20 35.6064 31.7659)" fill="#004949"/>
<rect x="32.9565" y="27.4094" width="3" height="1" transform="rotate(-20 32.9565 27.4094)" fill="#004949"/>
<rect x="23.9844" y="23.2256" width="2" height="1" transform="rotate(-20 23.9844 23.2256)" fill="#004949"/>
<rect x="12.4492" y="17.8467" width="6" height="1" transform="rotate(-20 12.4492 17.8467)" fill="#004949"/>
<rect x="15.8657" y="15.5388" width="2" height="1" transform="rotate(-20 15.8657 15.5388)" fill="#004949"/>
<rect x="13.6445" y="15.2832" width="5" height="1" transform="rotate(-20 13.6445 15.2832)" fill="#004949"/>
<rect x="13.3022" y="14.3435" width="4" height="1" transform="rotate(-20 13.3022 14.3435)" fill="#004949"/>
<rect x="28.6797" y="9.81079" width="1" height="2" transform="rotate(-20 28.6797 9.81079)" fill="#004949"/>
<rect x="3.56348" y="16.824" width="2" height="2" transform="rotate(-20 3.56348 16.824)" fill="#01AFAF"/>
<rect x="4.24756" y="18.7034" width="2" height="2" transform="rotate(-20 4.24756 18.7034)" fill="#01AFAF"/>
<rect x="5.5293" y="19.301" width="2" height="2" transform="rotate(-20 5.5293 19.301)" fill="#01AFAF"/>
<rect x="6.81104" y="19.8987" width="2" height="2" transform="rotate(-20 6.81104 19.8987)" fill="#01AFAF"/>
<rect x="8.09277" y="20.4963" width="2" height="2" transform="rotate(-20 8.09277 20.4963)" fill="#01AFAF"/>
<rect x="9.37451" y="21.094" width="2" height="2" transform="rotate(-20 9.37451 21.094)" fill="#01AFAF"/>
<rect x="10.6562" y="21.6917" width="2" height="2" transform="rotate(-20 10.6562 21.6917)" fill="#01AFAF"/>
<rect x="11.938" y="22.2893" width="2" height="2" transform="rotate(-20 11.938 22.2893)" fill="#01AFAF"/>
<rect x="13.2197" y="22.887" width="2" height="2" transform="rotate(-20 13.2197 22.887)" fill="#01AFAF"/>
<rect x="14.501" y="23.4846" width="2" height="2" transform="rotate(-20 14.501 23.4846)" fill="#01AFAF"/>
<rect x="15.7827" y="24.0825" width="2" height="2" transform="rotate(-20 15.7827 24.0825)" fill="#01AFAF"/>
<rect x="17.0645" y="24.6802" width="2" height="2" transform="rotate(-20 17.0645 24.6802)" fill="#01AFAF"/>
<rect x="18.3462" y="25.2778" width="2" height="2" transform="rotate(-20 18.3462 25.2778)" fill="#01AFAF"/>
<rect x="19.6279" y="25.8755" width="2" height="2" transform="rotate(-20 19.6279 25.8755)" fill="#01AFAF"/>
<rect x="20.9097" y="26.4731" width="2" height="2" transform="rotate(-20 20.9097 26.4731)" fill="#01AFAF"/>
<rect x="22.1914" y="27.0708" width="2" height="2" transform="rotate(-20 22.1914 27.0708)" fill="#01AFAF"/>
<rect x="23.4731" y="27.6685" width="2" height="2" transform="rotate(-20 23.4731 27.6685)" fill="#01AFAF"/>
<rect x="24.7549" y="28.2661" width="2" height="2" transform="rotate(-20 24.7549 28.2661)" fill="#01AFAF"/>
<rect x="26.0366" y="28.8638" width="2" height="2" transform="rotate(-20 26.0366 28.8638)" fill="#01AFAF"/>
<rect x="27.3184" y="29.4614" width="2" height="2" transform="rotate(-20 27.3184 29.4614)" fill="#01AFAF"/>
<rect x="28.6001" y="30.0591" width="2" height="2" transform="rotate(-20 28.6001 30.0591)" fill="#01AFAF"/>
<rect x="29.8818" y="30.6567" width="2" height="2" transform="rotate(-20 29.8818 30.6567)" fill="#01AFAF"/>
<rect x="31.1636" y="31.2544" width="5" height="2" transform="rotate(-20 31.1636 31.2544)" fill="#01AFAF"/>
<rect x="4.84521" y="17.4216" width="2" height="2" transform="rotate(-20 4.84521 17.4216)" fill="#01AFAF"/>
<rect x="6.12695" y="18.0193" width="2" height="2" transform="rotate(-20 6.12695 18.0193)" fill="#01AFAF"/>
<rect x="7.40869" y="18.6169" width="2" height="2" transform="rotate(-20 7.40869 18.6169)" fill="#01AFAF"/>
<rect x="8.69043" y="19.2146" width="2" height="2" transform="rotate(-20 8.69043 19.2146)" fill="#01AFAF"/>
<rect x="9.97217" y="19.8123" width="2" height="2" transform="rotate(-20 9.97217 19.8123)" fill="#01AFAF"/>
<rect x="29.9614" y="10.4084" width="2" height="2" transform="rotate(-20 29.9614 10.4084)" fill="#01AFAF"/>
<rect x="31.2432" y="11.0061" width="2" height="2" transform="rotate(-20 31.2432 11.0061)" fill="#01AFAF"/>
<rect x="11.2539" y="20.4099" width="2" height="2" transform="rotate(-20 11.2539 20.4099)" fill="#01AFAF"/>
<rect x="12.5356" y="21.0076" width="2" height="2" transform="rotate(-20 12.5356 21.0076)" fill="#01AFAF"/>
<rect x="13.8174" y="21.6055" width="2" height="2" transform="rotate(-20 13.8174 21.6055)" fill="#01AFAF"/>
<rect x="13.1333" y="19.7261" width="8" height="6" transform="rotate(-20 13.1333 19.7261)" fill="#01AFAF"/>
<rect x="15.0991" y="22.2031" width="2" height="2" transform="rotate(-20 15.0991 22.2031)" fill="#01AFAF"/>
<rect x="16.3804" y="22.8008" width="2" height="2" transform="rotate(-20 16.3804 22.8008)" fill="#01AFAF"/>
<rect x="17.6621" y="23.3984" width="2" height="2" transform="rotate(-20 17.6621 23.3984)" fill="#01AFAF"/>
<rect x="18.9438" y="23.9961" width="2" height="2" transform="rotate(-20 18.9438 23.9961)" fill="#01AFAF"/>
<rect x="20.2256" y="24.5938" width="2" height="2" transform="rotate(-20 20.2256 24.5938)" fill="#01AFAF"/>
<rect x="21.5073" y="25.1914" width="2" height="2" transform="rotate(-20 21.5073 25.1914)" fill="#01AFAF"/>
<rect x="22.7891" y="25.7891" width="2" height="2" transform="rotate(-20 22.7891 25.7891)" fill="#01AFAF"/>
<rect x="24.0708" y="26.3867" width="2" height="2" transform="rotate(-20 24.0708 26.3867)" fill="#01AFAF"/>
<rect x="25.3525" y="26.9844" width="2" height="2" transform="rotate(-20 25.3525 26.9844)" fill="#01AFAF"/>
<rect x="26.6343" y="27.582" width="2" height="2" transform="rotate(-20 26.6343 27.582)" fill="#01AFAF"/>
<rect x="27.916" y="28.1797" width="2" height="2" transform="rotate(-20 27.916 28.1797)" fill="#01AFAF"/>
<rect x="29.1978" y="28.7773" width="2" height="2" transform="rotate(-20 29.1978 28.7773)" fill="#01AFAF"/>
<rect x="30.4795" y="29.375" width="2" height="2" transform="rotate(-20 30.4795 29.375)" fill="#01AFAF"/>
<rect x="31.7612" y="29.9727" width="4" height="2" transform="rotate(-20 31.7612 29.9727)" fill="#01AFAF"/>
<rect x="20.8232" y="23.312" width="2" height="2" transform="rotate(-20 20.8232 23.312)" fill="#01AFAF"/>
<rect x="16.5498" y="17.4182" width="2" height="2" transform="rotate(-20 16.5498 17.4182)" fill="#01AFAF"/>
<rect x="18.0874" y="15.7944" width="4" height="2" transform="rotate(-20 18.0874 15.7944)" fill="#01AFAF"/>
<rect x="22.0186" y="20.7485" width="1" height="4" transform="rotate(-20 22.0186 20.7485)" fill="#01AFAF"/>
<rect x="22.3608" y="21.6882" width="4" height="2" transform="rotate(-20 22.3608 21.6882)" fill="#01AFAF"/>
<rect x="22.6162" y="19.4668" width="4" height="2" transform="rotate(-20 22.6162 19.4668)" fill="#01AFAF"/>
<rect x="22.2744" y="18.5271" width="4" height="2" transform="rotate(-20 22.2744 18.5271)" fill="#01AFAF"/>
<rect x="22.0186" y="20.7485" width="4" height="2" transform="rotate(-110 22.0186 20.7485)" fill="#01AFAF"/>
<rect x="20.9927" y="17.9294" width="4" height="2" transform="rotate(-20 20.9927 17.9294)" fill="#01AFAF"/>
<rect x="20.3086" y="16.05" width="5" height="2" transform="rotate(-20 20.3086 16.05)" fill="#01AFAF"/>
<rect x="19.9668" y="15.1104" width="11" height="2" transform="rotate(-20 19.9668 15.1104)" fill="#01AFAF"/>
<rect x="17.7451" y="14.8547" width="11" height="2" transform="rotate(-20 17.7451 14.8547)" fill="#01AFAF"/>
<rect x="17.4033" y="13.915" width="10" height="2" transform="rotate(-20 17.4033 13.915)" fill="#01AFAF"/>
<rect x="17.061" y="12.9753" width="6" height="2" transform="rotate(-20 17.061 12.9753)" fill="#01AFAF"/>
<rect x="14.8398" y="12.7197" width="4" height="1" transform="rotate(-20 14.8398 12.7197)" fill="#01AFAF"/>
</g>
<defs>
<clipPath id="clip0_60_592">
<rect width="40" height="40" fill="white"/>
</clipPath>
</defs>
</svg>
