<svg width="40" height="40" viewBox="0 0 40 40" fill="none" xmlns="http://www.w3.org/2000/svg">
<rect x="9" y="5" width="22" height="1" fill="#00FFFF"/>
<rect x="8" y="12" width="21" height="1" fill="#00FFFF"/>
<rect x="8" y="11" width="21" height="1" fill="#01AFAF"/>
<rect x="8" y="14" width="21" height="1" fill="#01AFAF"/>
<rect x="8" y="15" width="21" height="1" fill="#00FFFF"/>
<rect x="7" y="5" width="1" height="1" fill="#01AFAF"/>
<rect x="32" y="5" width="1" height="1" fill="#01AFAF"/>
<path d="M8 5H9V6H8V5Z" fill="#004949"/>
<path d="M8 5H9V6H8V5Z" fill="#004949"/>
<path d="M10 7H11V12H10V7Z" fill="#004949"/>
<path d="M10 7H11V12H10V7Z" fill="#004949"/>
<path d="M13 7H14V9H13V7Z" fill="#004949"/>
<path d="M13 7H14V9H13V7Z" fill="#004949"/>
<path d="M7 11H8V13H7V11Z" fill="#004949"/>
<path d="M7 11H8V13H7V11Z" fill="#004949"/>
<path d="M29 11H30V13H29V11Z" fill="#004949"/>
<path d="M29 11H30V13H29V11Z" fill="#004949"/>
<path d="M23 7H24V9H23V7Z" fill="#004949"/>
<path d="M23 7H24V9H23V7Z" fill="#004949"/>
<path d="M32 8H33V9H32V8Z" fill="#004949"/>
<path d="M32 8H33V9H32V8Z" fill="#004949"/>
<path d="M32 10H33V11H32V10Z" fill="#004949"/>
<path d="M32 10H33V11H32V10Z" fill="#004949"/>
<path d="M32 14H33V15H32V14Z" fill="#004949"/>
<path d="M32 14H33V15H32V14Z" fill="#004949"/>
<path d="M32 16H33V17H32V16Z" fill="#004949"/>
<path d="M32 16H33V17H32V16Z" fill="#004949"/>
<path d="M32 18H33V19H32V18Z" fill="#004949"/>
<path d="M32 18H33V19H32V18Z" fill="#004949"/>
<path d="M32 20H33V21H32V20Z" fill="#004949"/>
<path d="M32 20H33V21H32V20Z" fill="#004949"/>
<path d="M32 22H33V23H32V22Z" fill="#004949"/>
<path d="M32 22H33V23H32V22Z" fill="#004949"/>
<path d="M32 24H33V25H32V24Z" fill="#004949"/>
<path d="M32 24H33V25H32V24Z" fill="#004949"/>
<path d="M32 26H33V27H32V26Z" fill="#004949"/>
<path d="M32 26H33V27H32V26Z" fill="#004949"/>
<path d="M32 28H33V29H32V28Z" fill="#004949"/>
<path d="M32 28H33V29H32V28Z" fill="#004949"/>
<path d="M31 29H34V30H31V29Z" fill="#004949"/>
<path d="M31 29H34V30H31V29Z" fill="#004949"/>
<path d="M32 12H33V13H32V12Z" fill="#004949"/>
<path d="M32 12H33V13H32V12Z" fill="#004949"/>
<path d="M10 14H11V15H10V14Z" fill="#004949"/>
<path d="M10 14H11V15H10V14Z" fill="#004949"/>
<path d="M26 14H27V15H26V14Z" fill="#004949"/>
<path d="M26 14H27V15H26V14Z" fill="#004949"/>
<path d="M26 7H27V12H26V7Z" fill="#004949"/>
<path d="M26 7H27V12H26V7Z" fill="#004949"/>
<rect x="31" y="5" width="1" height="1" fill="#004949"/>
<rect x="33" y="5" width="1" height="1" fill="#004949"/>
<rect x="6" y="5" width="1" height="1" fill="#004949"/>
<rect x="6" y="4" width="28" height="1" fill="#004949"/>
<rect x="7" y="10" width="23" height="1" fill="#004949"/>
<rect x="7" y="13" width="23" height="1" fill="#004949"/>
<path d="M7 14H8V16H7V14Z" fill="#004949"/>
<path d="M7 14H8V16H7V14Z" fill="#004949"/>
<path d="M29 14H30V16H29V14Z" fill="#004949"/>
<path d="M29 14H30V16H29V14Z" fill="#004949"/>
<rect x="7" y="13" width="23" height="1" fill="#004949"/>
<rect x="7" y="16" width="23" height="1" fill="#004949"/>
<rect x="8" y="17" width="21" height="1" fill="#01AFAF"/>
<rect x="8" y="18" width="21" height="1" fill="#00FFFF"/>
<path d="M10 17H11V18H10V17Z" fill="#004949"/>
<path d="M10 17H11V18H10V17Z" fill="#004949"/>
<path d="M26 17H27V18H26V17Z" fill="#004949"/>
<path d="M26 17H27V18H26V17Z" fill="#004949"/>
<path d="M7 17H8V19H7V17Z" fill="#004949"/>
<path d="M7 17H8V19H7V17Z" fill="#004949"/>
<path d="M29 17H30V19H29V17Z" fill="#004949"/>
<path d="M29 17H30V19H29V17Z" fill="#004949"/>
<rect x="7" y="16" width="23" height="1" fill="#004949"/>
<rect x="7" y="19" width="23" height="1" fill="#004949"/>
<rect x="8" y="20" width="21" height="1" fill="#01AFAF"/>
<rect x="8" y="21" width="21" height="1" fill="#00FFFF"/>
<path d="M10 20H11V21H10V20Z" fill="#004949"/>
<path d="M10 20H11V21H10V20Z" fill="#004949"/>
<path d="M26 20H27V21H26V20Z" fill="#004949"/>
<path d="M26 20H27V21H26V20Z" fill="#004949"/>
<path d="M7 20H8V22H7V20Z" fill="#004949"/>
<path d="M7 20H8V22H7V20Z" fill="#004949"/>
<path d="M29 20H30V22H29V20Z" fill="#004949"/>
<path d="M29 20H30V22H29V20Z" fill="#004949"/>
<rect x="7" y="19" width="23" height="1" fill="#004949"/>
<rect x="7" y="22" width="23" height="1" fill="#004949"/>
<rect x="8" y="23" width="21" height="1" fill="#01AFAF"/>
<rect x="8" y="24" width="21" height="1" fill="#00FFFF"/>
<path d="M10 23H11V24H10V23Z" fill="#004949"/>
<path d="M10 23H11V24H10V23Z" fill="#004949"/>
<path d="M26 23H27V24H26V23Z" fill="#004949"/>
<path d="M26 23H27V24H26V23Z" fill="#004949"/>
<path d="M7 23H8V25H7V23Z" fill="#004949"/>
<path d="M7 23H8V25H7V23Z" fill="#004949"/>
<path d="M29 23H30V25H29V23Z" fill="#004949"/>
<path d="M29 23H30V25H29V23Z" fill="#004949"/>
<rect x="7" y="22" width="23" height="1" fill="#004949"/>
<rect x="7" y="25" width="23" height="1" fill="#004949"/>
<rect x="8" y="26" width="21" height="1" fill="#01AFAF"/>
<rect x="8" y="27" width="21" height="1" fill="#00FFFF"/>
<path d="M10 26H11V27H10V26Z" fill="#004949"/>
<path d="M10 26H11V27H10V26Z" fill="#004949"/>
<path d="M26 26H27V27H26V26Z" fill="#004949"/>
<path d="M26 26H27V27H26V26Z" fill="#004949"/>
<path d="M7 26H8V28H7V26Z" fill="#004949"/>
<path d="M7 26H8V28H7V26Z" fill="#004949"/>
<path d="M29 26H30V28H29V26Z" fill="#004949"/>
<path d="M29 26H30V28H29V26Z" fill="#004949"/>
<rect x="7" y="25" width="23" height="1" fill="#004949"/>
<rect x="7" y="28" width="23" height="1" fill="#004949"/>
<rect x="8" y="29" width="21" height="1" fill="#01AFAF"/>
<rect x="8" y="30" width="21" height="1" fill="#00FFFF"/>
<path d="M10 29H11V30H10V29Z" fill="#004949"/>
<path d="M10 29H11V30H10V29Z" fill="#004949"/>
<path d="M26 29H27V30H26V29Z" fill="#004949"/>
<path d="M26 29H27V30H26V29Z" fill="#004949"/>
<path d="M7 29H8V31H7V29Z" fill="#004949"/>
<path d="M7 29H8V31H7V29Z" fill="#004949"/>
<path d="M29 29H30V31H29V29Z" fill="#004949"/>
<path d="M29 29H30V31H29V29Z" fill="#004949"/>
<rect x="7" y="28" width="23" height="1" fill="#004949"/>
<rect x="7" y="31" width="23" height="1" fill="#004949"/>
<rect x="8" y="32" width="21" height="1" fill="#01AFAF"/>
<rect x="8" y="33" width="21" height="1" fill="#00FFFF"/>
<path d="M10 32H11V33H10V32Z" fill="#004949"/>
<path d="M10 32H11V33H10V32Z" fill="#004949"/>
<path d="M26 32H27V33H26V32Z" fill="#004949"/>
<path d="M26 32H27V33H26V32Z" fill="#004949"/>
<path d="M7 32H8V34H7V32Z" fill="#004949"/>
<path d="M7 32H8V34H7V32Z" fill="#004949"/>
<path d="M29 32H30V34H29V32Z" fill="#004949"/>
<path d="M29 32H30V34H29V32Z" fill="#004949"/>
<rect x="7" y="31" width="23" height="1" fill="#004949"/>
<rect x="7" y="34" width="23" height="1" fill="#004949"/>
<rect x="6" y="6" width="28" height="1" fill="#004949"/>
</svg>
