<svg width="20" height="31" viewBox="0 0 20 31" fill="none" xmlns="http://www.w3.org/2000/svg">
<rect x="11" y="8" width="3" height="3" transform="rotate(-180 11 8)" fill="#FF0040"/>
<rect x="14" y="5" width="3" height="3" transform="rotate(-180 14 5)" fill="#FF0040"/>
<rect x="14" y="29" width="3" height="3" transform="rotate(-180 14 29)" fill="#FF0040"/>
<rect x="20" y="31" width="6" height="3" transform="rotate(-180 20 31)" fill="#FF0040"/>
<rect x="4" y="15" width="2" height="2" transform="rotate(-180 4 15)" fill="#FF0040"/>
<rect x="1" y="16" width="1" height="1" transform="rotate(-180 1 16)" fill="#FF0040"/>
<rect x="3" y="17" width="2" height="3" transform="rotate(-180 3 17)" fill="#FF0040"/>
<rect x="4" y="18" width="2" height="2" transform="rotate(-180 4 18)" fill="#FF0040"/>
<rect x="6" y="20" width="2" height="2" transform="rotate(-180 6 20)" fill="#FF0040"/>
<rect x="6" y="13" width="2" height="2" transform="rotate(-180 6 13)" fill="#FF0040"/>
<rect x="6" y="17" width="3" height="3" transform="rotate(-180 6 17)" fill="#FF0040"/>
<rect x="20" y="3" width="6" height="3" transform="rotate(-180 20 3)" fill="#FF0040"/>
<rect x="11" y="11" width="3" height="3" transform="rotate(-180 11 11)" fill="#FF0040"/>
<rect x="11" y="26" width="3" height="6" transform="rotate(-180 11 26)" fill="#FF0040"/>
<rect x="17" y="17" width="12" height="3" transform="rotate(-180 17 17)" fill="#FF0040"/>
</svg>
